<mxfile host="app.diagrams.net" modified="2023-03-25T06:12:07.229Z" agent="Mozilla/5.0 (X11; Linux x86_64; rv:109.0) Gecko/20100101 Firefox/111.0" etag="20HLLsJIq5MUlDgl2cg3" version="21.1.1" type="device">
  <diagram name="Page-1" id="0BeIeK_EEcQGuapiEM1G">
    <mxGraphModel dx="3043" dy="686" grid="1" gridSize="10" guides="1" tooltips="1" connect="1" arrows="1" fold="1" page="1" pageScale="1" pageWidth="850" pageHeight="1100" math="0" shadow="0">
      <root>
        <mxCell id="0" />
        <mxCell id="1" parent="0" />
        <mxCell id="D-AUS298fjdNoZw_M_XQ-28" value="Entity" style="rounded=1;arcSize=10;whiteSpace=wrap;html=1;align=center;" parent="1" vertex="1">
          <mxGeometry x="-845" y="140" width="110" height="50" as="geometry" />
        </mxCell>
        <mxCell id="D-AUS298fjdNoZw_M_XQ-3" value="&lt;font style=&quot;font-size: 20px;&quot;&gt;Patient&lt;/font&gt;" style="rounded=1;arcSize=10;whiteSpace=wrap;html=1;align=center;fontSize=20;" parent="1" vertex="1">
          <mxGeometry x="-475" y="140" width="100" height="50" as="geometry" />
        </mxCell>
        <mxCell id="D-AUS298fjdNoZw_M_XQ-5" value="ssn" style="ellipse;whiteSpace=wrap;html=1;align=center;fontStyle=4;fontSize=20;" parent="1" vertex="1">
          <mxGeometry x="-580" y="50" width="100" height="40" as="geometry" />
        </mxCell>
        <mxCell id="D-AUS298fjdNoZw_M_XQ-9" value="name" style="ellipse;whiteSpace=wrap;html=1;align=center;fontSize=20;" parent="1" vertex="1">
          <mxGeometry x="-450" y="50" width="100" height="40" as="geometry" />
        </mxCell>
        <mxCell id="D-AUS298fjdNoZw_M_XQ-11" value="addresses" style="ellipse;whiteSpace=wrap;html=1;align=center;fontSize=20;" parent="1" vertex="1">
          <mxGeometry x="-310" y="90" width="100" height="40" as="geometry" />
        </mxCell>
        <mxCell id="D-AUS298fjdNoZw_M_XQ-13" value="" style="endArrow=none;html=1;rounded=0;entryX=0.108;entryY=0.806;entryDx=0;entryDy=0;entryPerimeter=0;exitX=1;exitY=0.5;exitDx=0;exitDy=0;fontSize=20;" parent="1" source="D-AUS298fjdNoZw_M_XQ-3" target="D-AUS298fjdNoZw_M_XQ-11" edge="1">
          <mxGeometry width="50" height="50" relative="1" as="geometry">
            <mxPoint x="-290" y="310" as="sourcePoint" />
            <mxPoint x="-240" y="260" as="targetPoint" />
          </mxGeometry>
        </mxCell>
        <mxCell id="D-AUS298fjdNoZw_M_XQ-14" value="" style="endArrow=none;html=1;rounded=0;entryX=0;entryY=1;entryDx=0;entryDy=0;exitX=1.008;exitY=0.583;exitDx=0;exitDy=0;exitPerimeter=0;fontSize=20;" parent="1" source="D-AUS298fjdNoZw_M_XQ-3" target="D-AUS298fjdNoZw_M_XQ-11" edge="1">
          <mxGeometry width="50" height="50" relative="1" as="geometry">
            <mxPoint x="-380" y="176" as="sourcePoint" />
            <mxPoint x="-302" y="130" as="targetPoint" />
          </mxGeometry>
        </mxCell>
        <mxCell id="D-AUS298fjdNoZw_M_XQ-15" value="bDate" style="ellipse;whiteSpace=wrap;html=1;align=center;fontSize=20;" parent="1" vertex="1">
          <mxGeometry x="-310" y="190" width="100" height="40" as="geometry" />
        </mxCell>
        <mxCell id="D-AUS298fjdNoZw_M_XQ-18" value="&lt;div style=&quot;font-size: 16px;&quot;&gt;&lt;font style=&quot;font-size: 16px;&quot;&gt;Previous&lt;/font&gt;&lt;/div&gt;&lt;div style=&quot;font-size: 16px;&quot;&gt;&lt;font style=&quot;font-size: 16px;&quot;&gt;Diagnoses&lt;font style=&quot;font-size: 16px;&quot;&gt;&lt;br&gt;&lt;/font&gt;&lt;/font&gt;&lt;/div&gt;" style="rounded=1;arcSize=10;whiteSpace=wrap;html=1;align=center;" parent="1" vertex="1">
          <mxGeometry x="-840" y="145" width="100" height="40" as="geometry" />
        </mxCell>
        <mxCell id="D-AUS298fjdNoZw_M_XQ-19" value="" style="endArrow=none;html=1;rounded=0;exitX=0;exitY=0;exitDx=0;exitDy=0;entryX=0.613;entryY=1.032;entryDx=0;entryDy=0;entryPerimeter=0;" parent="1" source="D-AUS298fjdNoZw_M_XQ-3" target="D-AUS298fjdNoZw_M_XQ-5" edge="1">
          <mxGeometry width="50" height="50" relative="1" as="geometry">
            <mxPoint x="-570" y="140" as="sourcePoint" />
            <mxPoint x="-520" y="90" as="targetPoint" />
          </mxGeometry>
        </mxCell>
        <mxCell id="D-AUS298fjdNoZw_M_XQ-20" value="" style="endArrow=none;html=1;rounded=0;exitX=0.75;exitY=0;exitDx=0;exitDy=0;entryX=0.601;entryY=1.046;entryDx=0;entryDy=0;entryPerimeter=0;" parent="1" source="D-AUS298fjdNoZw_M_XQ-3" target="D-AUS298fjdNoZw_M_XQ-9" edge="1">
          <mxGeometry width="50" height="50" relative="1" as="geometry">
            <mxPoint x="-356" y="139" as="sourcePoint" />
            <mxPoint x="-400" y="90" as="targetPoint" />
          </mxGeometry>
        </mxCell>
        <mxCell id="D-AUS298fjdNoZw_M_XQ-21" value="" style="endArrow=none;html=1;rounded=0;exitX=0;exitY=0.5;exitDx=0;exitDy=0;entryX=1;entryY=1;entryDx=0;entryDy=0;" parent="1" source="D-AUS298fjdNoZw_M_XQ-15" target="D-AUS298fjdNoZw_M_XQ-3" edge="1">
          <mxGeometry width="50" height="50" relative="1" as="geometry">
            <mxPoint x="-336" y="249" as="sourcePoint" />
            <mxPoint x="-380" y="200" as="targetPoint" />
          </mxGeometry>
        </mxCell>
        <mxCell id="D-AUS298fjdNoZw_M_XQ-22" value="" style="endArrow=none;html=1;rounded=0;exitX=1;exitY=0.5;exitDx=0;exitDy=0;entryX=0;entryY=0.5;entryDx=0;entryDy=0;" parent="1" source="D-AUS298fjdNoZw_M_XQ-28" target="D-AUS298fjdNoZw_M_XQ-24" edge="1">
          <mxGeometry width="50" height="50" relative="1" as="geometry">
            <mxPoint x="-536" y="269" as="sourcePoint" />
            <mxPoint x="-580" y="220" as="targetPoint" />
          </mxGeometry>
        </mxCell>
        <mxCell id="D-AUS298fjdNoZw_M_XQ-23" value="" style="endArrow=none;html=1;rounded=0;exitX=0;exitY=0.5;exitDx=0;exitDy=0;entryX=1;entryY=0.5;entryDx=0;entryDy=0;" parent="1" source="D-AUS298fjdNoZw_M_XQ-3" target="D-AUS298fjdNoZw_M_XQ-24" edge="1">
          <mxGeometry width="50" height="50" relative="1" as="geometry">
            <mxPoint x="-456" y="319" as="sourcePoint" />
            <mxPoint x="-500" y="270" as="targetPoint" />
          </mxGeometry>
        </mxCell>
        <mxCell id="D-AUS298fjdNoZw_M_XQ-24" value="&lt;font style=&quot;font-size: 20px;&quot;&gt;HAS&lt;/font&gt;" style="shape=rhombus;perimeter=rhombusPerimeter;whiteSpace=wrap;html=1;align=center;" parent="1" vertex="1">
          <mxGeometry x="-650" y="130" width="70" height="70" as="geometry" />
        </mxCell>
        <mxCell id="D-AUS298fjdNoZw_M_XQ-34" value="disease" style="ellipse;whiteSpace=wrap;html=1;align=center;fontSize=20;" parent="1" vertex="1">
          <mxGeometry x="-845" y="50" width="100" height="40" as="geometry" />
        </mxCell>
        <mxCell id="D-AUS298fjdNoZw_M_XQ-35" value="date" style="ellipse;whiteSpace=wrap;html=1;align=center;fontSize=20;" parent="1" vertex="1">
          <mxGeometry x="-990" y="100" width="100" height="40" as="geometry" />
        </mxCell>
        <mxCell id="D-AUS298fjdNoZw_M_XQ-38" value="" style="endArrow=none;dashed=1;html=1;rounded=0;" parent="1" edge="1">
          <mxGeometry width="50" height="50" relative="1" as="geometry">
            <mxPoint x="-830" y="80" as="sourcePoint" />
            <mxPoint x="-760" y="80" as="targetPoint" />
          </mxGeometry>
        </mxCell>
        <mxCell id="D-AUS298fjdNoZw_M_XQ-39" value="" style="endArrow=none;dashed=1;html=1;rounded=0;" parent="1" edge="1">
          <mxGeometry width="50" height="50" relative="1" as="geometry">
            <mxPoint x="-960" y="130" as="sourcePoint" />
            <mxPoint x="-920" y="130" as="targetPoint" />
          </mxGeometry>
        </mxCell>
        <mxCell id="D-AUS298fjdNoZw_M_XQ-40" value="" style="endArrow=none;html=1;rounded=0;exitX=0.418;exitY=-0.023;exitDx=0;exitDy=0;exitPerimeter=0;entryX=0.454;entryY=1.007;entryDx=0;entryDy=0;entryPerimeter=0;" parent="1" source="D-AUS298fjdNoZw_M_XQ-28" target="D-AUS298fjdNoZw_M_XQ-34" edge="1">
          <mxGeometry width="50" height="50" relative="1" as="geometry">
            <mxPoint x="-850" y="140" as="sourcePoint" />
            <mxPoint x="-780" y="110" as="targetPoint" />
          </mxGeometry>
        </mxCell>
        <mxCell id="D-AUS298fjdNoZw_M_XQ-41" value="" style="endArrow=none;html=1;rounded=0;entryX=0.904;entryY=0.771;entryDx=0;entryDy=0;entryPerimeter=0;exitX=0.003;exitY=0.617;exitDx=0;exitDy=0;exitPerimeter=0;" parent="1" source="D-AUS298fjdNoZw_M_XQ-28" target="D-AUS298fjdNoZw_M_XQ-35" edge="1">
          <mxGeometry width="50" height="50" relative="1" as="geometry">
            <mxPoint x="-920" y="220" as="sourcePoint" />
            <mxPoint x="-870" y="170" as="targetPoint" />
          </mxGeometry>
        </mxCell>
        <mxCell id="D-AUS298fjdNoZw_M_XQ-42" value="Clinic" style="rounded=1;arcSize=10;whiteSpace=wrap;html=1;align=center;fontSize=20;" parent="1" vertex="1">
          <mxGeometry x="-620" y="400" width="100" height="40" as="geometry" />
        </mxCell>
        <mxCell id="D-AUS298fjdNoZw_M_XQ-43" value="name" style="ellipse;whiteSpace=wrap;html=1;align=center;fontStyle=4;fontSize=20;" parent="1" vertex="1">
          <mxGeometry x="-500" y="450" width="100" height="40" as="geometry" />
        </mxCell>
        <mxCell id="D-AUS298fjdNoZw_M_XQ-44" value="bedNo" style="ellipse;whiteSpace=wrap;html=1;align=center;fontSize=20;" parent="1" vertex="1">
          <mxGeometry x="-680" y="470" width="100" height="40" as="geometry" />
        </mxCell>
        <mxCell id="D-AUS298fjdNoZw_M_XQ-45" value="" style="endArrow=none;html=1;rounded=0;entryX=0.325;entryY=1.038;entryDx=0;entryDy=0;entryPerimeter=0;exitX=0.641;exitY=0.008;exitDx=0;exitDy=0;exitPerimeter=0;" parent="1" source="D-AUS298fjdNoZw_M_XQ-44" target="D-AUS298fjdNoZw_M_XQ-42" edge="1">
          <mxGeometry width="50" height="50" relative="1" as="geometry">
            <mxPoint x="-690" y="440" as="sourcePoint" />
            <mxPoint x="-640" y="390" as="targetPoint" />
          </mxGeometry>
        </mxCell>
        <mxCell id="D-AUS298fjdNoZw_M_XQ-46" value="" style="endArrow=none;html=1;rounded=0;entryX=1;entryY=0.639;entryDx=0;entryDy=0;entryPerimeter=0;exitX=0.305;exitY=0.02;exitDx=0;exitDy=0;exitPerimeter=0;" parent="1" source="D-AUS298fjdNoZw_M_XQ-43" target="D-AUS298fjdNoZw_M_XQ-42" edge="1">
          <mxGeometry width="50" height="50" relative="1" as="geometry">
            <mxPoint x="-560" y="520" as="sourcePoint" />
            <mxPoint x="-510" y="470" as="targetPoint" />
          </mxGeometry>
        </mxCell>
        <mxCell id="D-AUS298fjdNoZw_M_XQ-48" value="Doctor" style="rounded=1;arcSize=10;whiteSpace=wrap;html=1;align=center;fontSize=20;" parent="1" vertex="1">
          <mxGeometry x="-1220" y="400" width="100" height="40" as="geometry" />
        </mxCell>
        <mxCell id="D-AUS298fjdNoZw_M_XQ-49" value="ssn" style="ellipse;whiteSpace=wrap;html=1;align=center;fontStyle=4;fontSize=20;" parent="1" vertex="1">
          <mxGeometry x="-1350" y="360" width="100" height="40" as="geometry" />
        </mxCell>
        <mxCell id="D-AUS298fjdNoZw_M_XQ-50" value="specialty" style="ellipse;whiteSpace=wrap;html=1;align=center;fontSize=20;" parent="1" vertex="1">
          <mxGeometry x="-1370" y="431.25" width="100" height="40" as="geometry" />
        </mxCell>
        <mxCell id="D-AUS298fjdNoZw_M_XQ-51" value="addresses" style="ellipse;whiteSpace=wrap;html=1;align=center;fontSize=20;" parent="1" vertex="1">
          <mxGeometry x="-1200" y="310" width="100" height="40" as="geometry" />
        </mxCell>
        <mxCell id="D-AUS298fjdNoZw_M_XQ-52" value="" style="endArrow=none;html=1;rounded=0;entryX=0.261;entryY=0.936;entryDx=0;entryDy=0;entryPerimeter=0;exitX=0.25;exitY=0;exitDx=0;exitDy=0;fontSize=20;" parent="1" source="D-AUS298fjdNoZw_M_XQ-48" target="D-AUS298fjdNoZw_M_XQ-51" edge="1">
          <mxGeometry width="50" height="50" relative="1" as="geometry">
            <mxPoint x="-1200" y="400" as="sourcePoint" />
            <mxPoint x="-1150" y="350" as="targetPoint" />
          </mxGeometry>
        </mxCell>
        <mxCell id="D-AUS298fjdNoZw_M_XQ-53" value="" style="endArrow=none;html=1;rounded=0;entryX=0.295;entryY=0.999;entryDx=0;entryDy=0;entryPerimeter=0;exitX=0.295;exitY=0.023;exitDx=0;exitDy=0;exitPerimeter=0;fontSize=20;" parent="1" source="D-AUS298fjdNoZw_M_XQ-48" target="D-AUS298fjdNoZw_M_XQ-51" edge="1">
          <mxGeometry width="50" height="50" relative="1" as="geometry">
            <mxPoint x="-1160" y="400" as="sourcePoint" />
            <mxPoint x="-1110" y="350" as="targetPoint" />
          </mxGeometry>
        </mxCell>
        <mxCell id="D-AUS298fjdNoZw_M_XQ-56" value="" style="endArrow=none;html=1;rounded=0;entryX=0.896;entryY=0.861;entryDx=0;entryDy=0;entryPerimeter=0;exitX=0;exitY=0.25;exitDx=0;exitDy=0;fontSize=20;" parent="1" source="D-AUS298fjdNoZw_M_XQ-48" target="D-AUS298fjdNoZw_M_XQ-49" edge="1">
          <mxGeometry width="50" height="50" relative="1" as="geometry">
            <mxPoint x="-1270" y="410" as="sourcePoint" />
            <mxPoint x="-1220" y="360" as="targetPoint" />
          </mxGeometry>
        </mxCell>
        <mxCell id="D-AUS298fjdNoZw_M_XQ-57" value="" style="endArrow=none;html=1;rounded=0;exitX=0.987;exitY=0.332;exitDx=0;exitDy=0;exitPerimeter=0;entryX=0;entryY=0.75;entryDx=0;entryDy=0;fontSize=20;" parent="1" source="D-AUS298fjdNoZw_M_XQ-50" target="D-AUS298fjdNoZw_M_XQ-48" edge="1">
          <mxGeometry width="50" height="50" relative="1" as="geometry">
            <mxPoint x="-1220" y="550" as="sourcePoint" />
            <mxPoint x="-1170" y="500" as="targetPoint" />
          </mxGeometry>
        </mxCell>
        <mxCell id="D-AUS298fjdNoZw_M_XQ-58" value="name" style="ellipse;whiteSpace=wrap;html=1;align=center;fontSize=20;" parent="1" vertex="1">
          <mxGeometry x="-1080" y="360" width="100" height="40" as="geometry" />
        </mxCell>
        <mxCell id="D-AUS298fjdNoZw_M_XQ-59" value="" style="endArrow=none;html=1;rounded=0;entryX=0.052;entryY=0.725;entryDx=0;entryDy=0;entryPerimeter=0;exitX=1;exitY=0.25;exitDx=0;exitDy=0;fontSize=20;" parent="1" source="D-AUS298fjdNoZw_M_XQ-48" target="D-AUS298fjdNoZw_M_XQ-58" edge="1">
          <mxGeometry width="50" height="50" relative="1" as="geometry">
            <mxPoint x="-1120" y="510" as="sourcePoint" />
            <mxPoint x="-1070" y="460" as="targetPoint" />
          </mxGeometry>
        </mxCell>
        <mxCell id="D-AUS298fjdNoZw_M_XQ-60" value="phones" style="ellipse;whiteSpace=wrap;html=1;align=center;fontSize=20;" parent="1" vertex="1">
          <mxGeometry x="-1060" y="450" width="100" height="40" as="geometry" />
        </mxCell>
        <mxCell id="D-AUS298fjdNoZw_M_XQ-61" value="" style="endArrow=none;html=1;rounded=0;entryX=1;entryY=0.75;entryDx=0;entryDy=0;exitX=0.195;exitY=0.091;exitDx=0;exitDy=0;exitPerimeter=0;fontSize=20;" parent="1" source="D-AUS298fjdNoZw_M_XQ-60" target="D-AUS298fjdNoZw_M_XQ-48" edge="1">
          <mxGeometry width="50" height="50" relative="1" as="geometry">
            <mxPoint x="-1120" y="500" as="sourcePoint" />
            <mxPoint x="-1070" y="450" as="targetPoint" />
          </mxGeometry>
        </mxCell>
        <mxCell id="D-AUS298fjdNoZw_M_XQ-62" value="" style="endArrow=none;html=1;rounded=0;entryX=1.009;entryY=0.881;entryDx=0;entryDy=0;entryPerimeter=0;exitX=0.13;exitY=0.183;exitDx=0;exitDy=0;exitPerimeter=0;fontSize=20;" parent="1" source="D-AUS298fjdNoZw_M_XQ-60" target="D-AUS298fjdNoZw_M_XQ-48" edge="1">
          <mxGeometry width="50" height="50" relative="1" as="geometry">
            <mxPoint x="-1180" y="520" as="sourcePoint" />
            <mxPoint x="-1130" y="470" as="targetPoint" />
          </mxGeometry>
        </mxCell>
        <mxCell id="D-AUS298fjdNoZw_M_XQ-63" value="" style="triangle;whiteSpace=wrap;html=1;rotation=-90;" parent="1" vertex="1">
          <mxGeometry x="-1200" y="520" width="60" height="80" as="geometry" />
        </mxCell>
        <mxCell id="D-AUS298fjdNoZw_M_XQ-64" value="&lt;font style=&quot;font-size: 20px;&quot;&gt;IsA&lt;/font&gt;" style="text;html=1;strokeColor=none;fillColor=none;align=center;verticalAlign=middle;whiteSpace=wrap;rounded=0;" parent="1" vertex="1">
          <mxGeometry x="-1200" y="550" width="60" height="30" as="geometry" />
        </mxCell>
        <mxCell id="D-AUS298fjdNoZw_M_XQ-65" value="" style="endArrow=none;html=1;rounded=0;entryX=0.5;entryY=1;entryDx=0;entryDy=0;exitX=1;exitY=0.5;exitDx=0;exitDy=0;fontSize=20;" parent="1" source="D-AUS298fjdNoZw_M_XQ-63" target="D-AUS298fjdNoZw_M_XQ-48" edge="1">
          <mxGeometry width="50" height="50" relative="1" as="geometry">
            <mxPoint x="-1230" y="540" as="sourcePoint" />
            <mxPoint x="-1180" y="490" as="targetPoint" />
          </mxGeometry>
        </mxCell>
        <mxCell id="D-AUS298fjdNoZw_M_XQ-66" value="ClinicDoc" style="rounded=1;arcSize=10;whiteSpace=wrap;html=1;align=center;fontSize=20;" parent="1" vertex="1">
          <mxGeometry x="-1360" y="630" width="100" height="40" as="geometry" />
        </mxCell>
        <mxCell id="D-AUS298fjdNoZw_M_XQ-67" value="LabDoc" style="rounded=1;arcSize=10;whiteSpace=wrap;html=1;align=center;fontSize=20;" parent="1" vertex="1">
          <mxGeometry x="-1100" y="630" width="100" height="40" as="geometry" />
        </mxCell>
        <mxCell id="D-AUS298fjdNoZw_M_XQ-68" value="yearsServed" style="ellipse;whiteSpace=wrap;html=1;align=center;fontSize=16;" parent="1" vertex="1">
          <mxGeometry x="-1430" y="710" width="100" height="40" as="geometry" />
        </mxCell>
        <mxCell id="D-AUS298fjdNoZw_M_XQ-69" value="diseaseType" style="ellipse;whiteSpace=wrap;html=1;align=center;fontSize=16;" parent="1" vertex="1">
          <mxGeometry x="-1045" y="710" width="100" height="40" as="geometry" />
        </mxCell>
        <mxCell id="D-AUS298fjdNoZw_M_XQ-70" value="" style="endArrow=none;html=1;rounded=0;entryX=-0.021;entryY=-0.009;entryDx=0;entryDy=0;entryPerimeter=0;exitX=0.851;exitY=0.015;exitDx=0;exitDy=0;exitPerimeter=0;" parent="1" source="D-AUS298fjdNoZw_M_XQ-66" target="D-AUS298fjdNoZw_M_XQ-63" edge="1">
          <mxGeometry width="50" height="50" relative="1" as="geometry">
            <mxPoint x="-1290" y="730" as="sourcePoint" />
            <mxPoint x="-1240" y="680" as="targetPoint" />
          </mxGeometry>
        </mxCell>
        <mxCell id="D-AUS298fjdNoZw_M_XQ-71" value="" style="endArrow=none;html=1;rounded=0;entryX=0.5;entryY=1;entryDx=0;entryDy=0;exitX=0.676;exitY=-0.003;exitDx=0;exitDy=0;exitPerimeter=0;" parent="1" source="D-AUS298fjdNoZw_M_XQ-68" target="D-AUS298fjdNoZw_M_XQ-66" edge="1">
          <mxGeometry width="50" height="50" relative="1" as="geometry">
            <mxPoint x="-1260" y="770" as="sourcePoint" />
            <mxPoint x="-1210" y="720" as="targetPoint" />
          </mxGeometry>
        </mxCell>
        <mxCell id="D-AUS298fjdNoZw_M_XQ-72" value="" style="endArrow=none;html=1;rounded=0;entryX=-0.021;entryY=1.025;entryDx=0;entryDy=0;entryPerimeter=0;exitX=0.376;exitY=-0.054;exitDx=0;exitDy=0;exitPerimeter=0;" parent="1" source="D-AUS298fjdNoZw_M_XQ-67" target="D-AUS298fjdNoZw_M_XQ-63" edge="1">
          <mxGeometry width="50" height="50" relative="1" as="geometry">
            <mxPoint x="-1210" y="690" as="sourcePoint" />
            <mxPoint x="-1160" y="640" as="targetPoint" />
          </mxGeometry>
        </mxCell>
        <mxCell id="D-AUS298fjdNoZw_M_XQ-73" value="" style="endArrow=none;html=1;rounded=0;entryX=0.617;entryY=0.997;entryDx=0;entryDy=0;entryPerimeter=0;exitX=0.46;exitY=-0.02;exitDx=0;exitDy=0;exitPerimeter=0;" parent="1" source="D-AUS298fjdNoZw_M_XQ-69" target="D-AUS298fjdNoZw_M_XQ-67" edge="1">
          <mxGeometry width="50" height="50" relative="1" as="geometry">
            <mxPoint x="-1190" y="790" as="sourcePoint" />
            <mxPoint x="-1140" y="740" as="targetPoint" />
          </mxGeometry>
        </mxCell>
        <mxCell id="D-AUS298fjdNoZw_M_XQ-74" value="Diagnosis" style="rounded=1;arcSize=10;whiteSpace=wrap;html=1;align=center;fontSize=20;" parent="1" vertex="1">
          <mxGeometry x="-290" y="580" width="100" height="40" as="geometry" />
        </mxCell>
        <mxCell id="D-AUS298fjdNoZw_M_XQ-76" value="id" style="ellipse;whiteSpace=wrap;html=1;align=center;fontStyle=4;fontSize=20;" parent="1" vertex="1">
          <mxGeometry x="-180" y="500" width="100" height="40" as="geometry" />
        </mxCell>
        <mxCell id="D-AUS298fjdNoZw_M_XQ-77" value="" style="endArrow=none;html=1;rounded=0;entryX=0;entryY=1;entryDx=0;entryDy=0;exitX=0.75;exitY=0;exitDx=0;exitDy=0;fontSize=20;" parent="1" source="D-AUS298fjdNoZw_M_XQ-74" target="D-AUS298fjdNoZw_M_XQ-76" edge="1">
          <mxGeometry width="50" height="50" relative="1" as="geometry">
            <mxPoint x="-200" y="710" as="sourcePoint" />
            <mxPoint x="-150" y="660" as="targetPoint" />
          </mxGeometry>
        </mxCell>
        <mxCell id="D-AUS298fjdNoZw_M_XQ-78" value="description" style="ellipse;whiteSpace=wrap;html=1;align=center;fontSize=20;" parent="1" vertex="1">
          <mxGeometry x="-140" y="580" width="100" height="40" as="geometry" />
        </mxCell>
        <mxCell id="D-AUS298fjdNoZw_M_XQ-79" value="disease" style="ellipse;whiteSpace=wrap;html=1;align=center;fontSize=20;" parent="1" vertex="1">
          <mxGeometry x="-190" y="660" width="100" height="40" as="geometry" />
        </mxCell>
        <mxCell id="D-AUS298fjdNoZw_M_XQ-80" value="antidote" style="ellipse;whiteSpace=wrap;html=1;align=center;fontSize=20;" parent="1" vertex="1">
          <mxGeometry x="-270" y="700" width="100" height="40" as="geometry" />
        </mxCell>
        <mxCell id="D-AUS298fjdNoZw_M_XQ-81" value="price" style="ellipse;whiteSpace=wrap;html=1;align=center;fontSize=20;" parent="1" vertex="1">
          <mxGeometry x="-395" y="670" width="100" height="40" as="geometry" />
        </mxCell>
        <mxCell id="D-AUS298fjdNoZw_M_XQ-82" value="" style="endArrow=none;html=1;rounded=0;entryX=0;entryY=1;entryDx=0;entryDy=0;exitX=0.904;exitY=0.221;exitDx=0;exitDy=0;exitPerimeter=0;fontSize=20;" parent="1" source="D-AUS298fjdNoZw_M_XQ-81" target="D-AUS298fjdNoZw_M_XQ-74" edge="1">
          <mxGeometry width="50" height="50" relative="1" as="geometry">
            <mxPoint x="-330" y="670" as="sourcePoint" />
            <mxPoint x="-280" y="620" as="targetPoint" />
          </mxGeometry>
        </mxCell>
        <mxCell id="D-AUS298fjdNoZw_M_XQ-83" value="" style="endArrow=none;html=1;rounded=0;entryX=0.395;entryY=1.063;entryDx=0;entryDy=0;exitX=0.3;exitY=0;exitDx=0;exitDy=0;exitPerimeter=0;fontSize=20;entryPerimeter=0;" parent="1" source="D-AUS298fjdNoZw_M_XQ-80" target="D-AUS298fjdNoZw_M_XQ-74" edge="1">
          <mxGeometry width="50" height="50" relative="1" as="geometry">
            <mxPoint x="-350" y="710" as="sourcePoint" />
            <mxPoint x="-300" y="660" as="targetPoint" />
          </mxGeometry>
        </mxCell>
        <mxCell id="D-AUS298fjdNoZw_M_XQ-84" value="" style="endArrow=none;html=1;rounded=0;entryX=0.919;entryY=1.029;entryDx=0;entryDy=0;entryPerimeter=0;exitX=0;exitY=0;exitDx=0;exitDy=0;fontSize=20;" parent="1" source="D-AUS298fjdNoZw_M_XQ-79" target="D-AUS298fjdNoZw_M_XQ-74" edge="1">
          <mxGeometry width="50" height="50" relative="1" as="geometry">
            <mxPoint x="-190" y="830" as="sourcePoint" />
            <mxPoint x="-140" y="780" as="targetPoint" />
          </mxGeometry>
        </mxCell>
        <mxCell id="D-AUS298fjdNoZw_M_XQ-85" value="" style="endArrow=none;html=1;rounded=0;entryX=1;entryY=0.5;entryDx=0;entryDy=0;exitX=0;exitY=0.5;exitDx=0;exitDy=0;fontSize=20;" parent="1" source="D-AUS298fjdNoZw_M_XQ-78" target="D-AUS298fjdNoZw_M_XQ-74" edge="1">
          <mxGeometry width="50" height="50" relative="1" as="geometry">
            <mxPoint x="-90" y="820" as="sourcePoint" />
            <mxPoint x="-40" y="770" as="targetPoint" />
          </mxGeometry>
        </mxCell>
        <mxCell id="D-AUS298fjdNoZw_M_XQ-86" value="WORKS_AT" style="shape=rhombus;perimeter=rhombusPerimeter;whiteSpace=wrap;html=1;align=center;fontSize=18;" parent="1" vertex="1">
          <mxGeometry x="-920" y="368.75" width="130" height="102.5" as="geometry" />
        </mxCell>
        <mxCell id="D-AUS298fjdNoZw_M_XQ-87" value="" style="endArrow=none;html=1;rounded=0;entryX=0;entryY=0.5;entryDx=0;entryDy=0;exitX=1;exitY=0.5;exitDx=0;exitDy=0;" parent="1" source="D-AUS298fjdNoZw_M_XQ-48" target="D-AUS298fjdNoZw_M_XQ-86" edge="1">
          <mxGeometry width="50" height="50" relative="1" as="geometry">
            <mxPoint x="-1000" y="460" as="sourcePoint" />
            <mxPoint x="-950" y="410" as="targetPoint" />
          </mxGeometry>
        </mxCell>
        <mxCell id="D-AUS298fjdNoZw_M_XQ-88" value="" style="endArrow=none;html=1;rounded=0;entryX=0;entryY=0.5;entryDx=0;entryDy=0;exitX=1;exitY=0.5;exitDx=0;exitDy=0;" parent="1" source="D-AUS298fjdNoZw_M_XQ-86" target="D-AUS298fjdNoZw_M_XQ-42" edge="1">
          <mxGeometry width="50" height="50" relative="1" as="geometry">
            <mxPoint x="-800" y="430" as="sourcePoint" />
            <mxPoint x="-750" y="380" as="targetPoint" />
          </mxGeometry>
        </mxCell>
        <mxCell id="D-AUS298fjdNoZw_M_XQ-90" value="MANAGES" style="shape=rhombus;perimeter=rhombusPerimeter;whiteSpace=wrap;html=1;align=center;fontSize=18;" parent="1" vertex="1">
          <mxGeometry x="-910" y="240" width="120" height="90" as="geometry" />
        </mxCell>
        <mxCell id="D-AUS298fjdNoZw_M_XQ-91" value="" style="endArrow=none;html=1;rounded=0;entryX=0;entryY=0;entryDx=0;entryDy=0;exitX=1;exitY=0.5;exitDx=0;exitDy=0;" parent="1" source="D-AUS298fjdNoZw_M_XQ-90" target="D-AUS298fjdNoZw_M_XQ-42" edge="1">
          <mxGeometry width="50" height="50" relative="1" as="geometry">
            <mxPoint x="-770" y="350" as="sourcePoint" />
            <mxPoint x="-720" y="300" as="targetPoint" />
          </mxGeometry>
        </mxCell>
        <mxCell id="D-AUS298fjdNoZw_M_XQ-92" value="" style="endArrow=none;html=1;rounded=0;entryX=0;entryY=0.5;entryDx=0;entryDy=0;exitX=0.592;exitY=-0.005;exitDx=0;exitDy=0;exitPerimeter=0;" parent="1" source="D-AUS298fjdNoZw_M_XQ-48" target="D-AUS298fjdNoZw_M_XQ-90" edge="1">
          <mxGeometry width="50" height="50" relative="1" as="geometry">
            <mxPoint x="-1030" y="320" as="sourcePoint" />
            <mxPoint x="-980" y="270" as="targetPoint" />
          </mxGeometry>
        </mxCell>
        <mxCell id="D-AUS298fjdNoZw_M_XQ-93" value="" style="endArrow=none;html=1;rounded=0;entryX=0.08;entryY=1.035;entryDx=0;entryDy=0;exitX=0.693;exitY=0.015;exitDx=0;exitDy=0;entryPerimeter=0;exitPerimeter=0;" parent="1" source="D-AUS298fjdNoZw_M_XQ-94" target="D-AUS298fjdNoZw_M_XQ-48" edge="1">
          <mxGeometry width="50" height="50" relative="1" as="geometry">
            <mxPoint x="-1120" y="510" as="sourcePoint" />
            <mxPoint x="-840" y="640" as="targetPoint" />
          </mxGeometry>
        </mxCell>
        <mxCell id="D-AUS298fjdNoZw_M_XQ-94" value="workingAtClinicSince" style="ellipse;whiteSpace=wrap;html=1;align=center;fontSize=15;" parent="1" vertex="1">
          <mxGeometry x="-1370" y="490" width="170" height="40" as="geometry" />
        </mxCell>
        <mxCell id="D-AUS298fjdNoZw_M_XQ-95" value="(1, 1)" style="text;html=1;align=center;verticalAlign=middle;resizable=0;points=[];autosize=1;strokeColor=none;fillColor=none;fontSize=15;" parent="1" vertex="1">
          <mxGeometry x="-1045" y="420" width="60" height="30" as="geometry" />
        </mxCell>
        <mxCell id="D-AUS298fjdNoZw_M_XQ-96" value="(1, N)" style="text;html=1;align=center;verticalAlign=middle;resizable=0;points=[];autosize=1;strokeColor=none;fillColor=none;fontSize=15;" parent="1" vertex="1">
          <mxGeometry x="-755" y="420" width="60" height="30" as="geometry" />
        </mxCell>
        <mxCell id="D-AUS298fjdNoZw_M_XQ-98" value="(1, 1)" style="text;html=1;align=center;verticalAlign=middle;resizable=0;points=[];autosize=1;strokeColor=none;fillColor=none;fontSize=15;" parent="1" vertex="1">
          <mxGeometry x="-740" y="310" width="60" height="30" as="geometry" />
        </mxCell>
        <mxCell id="D-AUS298fjdNoZw_M_XQ-99" value="(0, 1)" style="text;html=1;align=center;verticalAlign=middle;resizable=0;points=[];autosize=1;strokeColor=none;fillColor=none;fontSize=15;" parent="1" vertex="1">
          <mxGeometry x="-1055" y="310" width="60" height="30" as="geometry" />
        </mxCell>
        <mxCell id="D-AUS298fjdNoZw_M_XQ-101" value="HOSPITALIZED" style="shape=rhombus;perimeter=rhombusPerimeter;whiteSpace=wrap;html=1;align=center;fontSize=16;" parent="1" vertex="1">
          <mxGeometry x="-565" y="250" width="140" height="100" as="geometry" />
        </mxCell>
        <mxCell id="D-AUS298fjdNoZw_M_XQ-102" value="" style="endArrow=none;html=1;rounded=0;entryX=0.4;entryY=1.016;entryDx=0;entryDy=0;entryPerimeter=0;exitX=0.735;exitY=0.213;exitDx=0;exitDy=0;exitPerimeter=0;" parent="1" source="D-AUS298fjdNoZw_M_XQ-101" target="D-AUS298fjdNoZw_M_XQ-3" edge="1">
          <mxGeometry width="50" height="50" relative="1" as="geometry">
            <mxPoint x="-480" y="260" as="sourcePoint" />
            <mxPoint x="-430" y="210" as="targetPoint" />
          </mxGeometry>
        </mxCell>
        <mxCell id="D-AUS298fjdNoZw_M_XQ-103" value="" style="endArrow=none;html=1;rounded=0;entryX=0;entryY=1;entryDx=0;entryDy=0;exitX=0.517;exitY=-0.075;exitDx=0;exitDy=0;exitPerimeter=0;" parent="1" source="D-AUS298fjdNoZw_M_XQ-42" target="D-AUS298fjdNoZw_M_XQ-101" edge="1">
          <mxGeometry width="50" height="50" relative="1" as="geometry">
            <mxPoint x="-590" y="390" as="sourcePoint" />
            <mxPoint x="-540" y="340" as="targetPoint" />
          </mxGeometry>
        </mxCell>
        <mxCell id="D-AUS298fjdNoZw_M_XQ-104" value="startDate" style="ellipse;whiteSpace=wrap;html=1;align=center;fontSize=20;" parent="1" vertex="1">
          <mxGeometry x="-665" y="240" width="100" height="40" as="geometry" />
        </mxCell>
        <mxCell id="D-AUS298fjdNoZw_M_XQ-105" value="endDate" style="ellipse;whiteSpace=wrap;html=1;align=center;fontSize=20;" parent="1" vertex="1">
          <mxGeometry x="-440" y="340" width="100" height="40" as="geometry" />
        </mxCell>
        <mxCell id="D-AUS298fjdNoZw_M_XQ-106" value="" style="endArrow=none;html=1;rounded=0;entryX=-0.003;entryY=0.394;entryDx=0;entryDy=0;entryPerimeter=0;exitX=0.698;exitY=0.813;exitDx=0;exitDy=0;exitPerimeter=0;" parent="1" source="D-AUS298fjdNoZw_M_XQ-101" target="D-AUS298fjdNoZw_M_XQ-105" edge="1">
          <mxGeometry width="50" height="50" relative="1" as="geometry">
            <mxPoint x="-480" y="400" as="sourcePoint" />
            <mxPoint x="-430" y="350" as="targetPoint" />
          </mxGeometry>
        </mxCell>
        <mxCell id="D-AUS298fjdNoZw_M_XQ-107" value="" style="endArrow=none;html=1;rounded=0;entryX=0.895;entryY=0.85;entryDx=0;entryDy=0;entryPerimeter=0;exitX=0.072;exitY=0.39;exitDx=0;exitDy=0;exitPerimeter=0;" parent="1" source="D-AUS298fjdNoZw_M_XQ-101" target="D-AUS298fjdNoZw_M_XQ-104" edge="1">
          <mxGeometry width="50" height="50" relative="1" as="geometry">
            <mxPoint x="-430" y="350" as="sourcePoint" />
            <mxPoint x="-380" y="300" as="targetPoint" />
          </mxGeometry>
        </mxCell>
        <mxCell id="D-AUS298fjdNoZw_M_XQ-108" value="(0, N)" style="text;html=1;align=center;verticalAlign=middle;resizable=0;points=[];autosize=1;strokeColor=none;fillColor=none;fontSize=15;" parent="1" vertex="1">
          <mxGeometry x="-600" y="345" width="60" height="30" as="geometry" />
        </mxCell>
        <mxCell id="D-AUS298fjdNoZw_M_XQ-109" value="(1, N)" style="text;html=1;align=center;verticalAlign=middle;resizable=0;points=[];autosize=1;strokeColor=none;fillColor=none;fontSize=15;" parent="1" vertex="1">
          <mxGeometry x="-455" y="210" width="60" height="30" as="geometry" />
        </mxCell>
        <mxCell id="D-AUS298fjdNoZw_M_XQ-110" value="(1, 1)" style="text;html=1;align=center;verticalAlign=middle;resizable=0;points=[];autosize=1;strokeColor=none;fillColor=none;fontSize=15;" parent="1" vertex="1">
          <mxGeometry x="-725" y="140" width="60" height="30" as="geometry" />
        </mxCell>
        <mxCell id="D-AUS298fjdNoZw_M_XQ-111" value="(1, N)" style="text;html=1;align=center;verticalAlign=middle;resizable=0;points=[];autosize=1;strokeColor=none;fillColor=none;fontSize=15;" parent="1" vertex="1">
          <mxGeometry x="-570" y="140" width="60" height="30" as="geometry" />
        </mxCell>
        <mxCell id="D-AUS298fjdNoZw_M_XQ-112" value="insurances" style="ellipse;whiteSpace=wrap;html=1;align=center;fontSize=18;" parent="1" vertex="1">
          <mxGeometry x="-240" y="140" width="100" height="40" as="geometry" />
        </mxCell>
        <mxCell id="D-AUS298fjdNoZw_M_XQ-113" value="gender" style="ellipse;whiteSpace=wrap;html=1;align=center;fontSize=20;" parent="1" vertex="1">
          <mxGeometry x="-320" y="40" width="100" height="40" as="geometry" />
        </mxCell>
        <mxCell id="D-AUS298fjdNoZw_M_XQ-114" value="" style="endArrow=none;html=1;rounded=0;entryX=0.03;entryY=0.746;entryDx=0;entryDy=0;entryPerimeter=0;exitX=0.965;exitY=0.012;exitDx=0;exitDy=0;exitPerimeter=0;" parent="1" source="D-AUS298fjdNoZw_M_XQ-3" target="D-AUS298fjdNoZw_M_XQ-113" edge="1">
          <mxGeometry width="50" height="50" relative="1" as="geometry">
            <mxPoint x="-380" y="150" as="sourcePoint" />
            <mxPoint x="-330" y="100" as="targetPoint" />
          </mxGeometry>
        </mxCell>
        <mxCell id="D-AUS298fjdNoZw_M_XQ-115" value="" style="endArrow=none;html=1;rounded=0;entryX=-0.008;entryY=0.427;entryDx=0;entryDy=0;entryPerimeter=0;exitX=0.989;exitY=0.705;exitDx=0;exitDy=0;exitPerimeter=0;" parent="1" source="D-AUS298fjdNoZw_M_XQ-3" target="D-AUS298fjdNoZw_M_XQ-112" edge="1">
          <mxGeometry width="50" height="50" relative="1" as="geometry">
            <mxPoint x="-300" y="200" as="sourcePoint" />
            <mxPoint x="-250" y="150" as="targetPoint" />
          </mxGeometry>
        </mxCell>
        <mxCell id="D-AUS298fjdNoZw_M_XQ-116" value="" style="endArrow=none;html=1;rounded=0;entryX=-0.016;entryY=0.536;entryDx=0;entryDy=0;entryPerimeter=0;exitX=1.004;exitY=0.791;exitDx=0;exitDy=0;exitPerimeter=0;" parent="1" source="D-AUS298fjdNoZw_M_XQ-3" target="D-AUS298fjdNoZw_M_XQ-112" edge="1">
          <mxGeometry width="50" height="50" relative="1" as="geometry">
            <mxPoint x="-350" y="220" as="sourcePoint" />
            <mxPoint x="-300" y="170" as="targetPoint" />
          </mxGeometry>
        </mxCell>
        <mxCell id="D-AUS298fjdNoZw_M_XQ-117" value="&lt;font style=&quot;font-size: 20px;&quot;&gt;HAS&lt;/font&gt;" style="shape=rhombus;perimeter=rhombusPerimeter;whiteSpace=wrap;html=1;align=center;" parent="1" vertex="1">
          <mxGeometry x="-295" y="330" width="70" height="70" as="geometry" />
        </mxCell>
        <mxCell id="D-AUS298fjdNoZw_M_XQ-118" value="" style="endArrow=none;html=1;rounded=0;entryX=0.868;entryY=1.022;entryDx=0;entryDy=0;entryPerimeter=0;exitX=0.5;exitY=0;exitDx=0;exitDy=0;" parent="1" source="D-AUS298fjdNoZw_M_XQ-117" target="D-AUS298fjdNoZw_M_XQ-3" edge="1">
          <mxGeometry width="50" height="50" relative="1" as="geometry">
            <mxPoint x="-380" y="330" as="sourcePoint" />
            <mxPoint x="-330" y="280" as="targetPoint" />
          </mxGeometry>
        </mxCell>
        <mxCell id="D-AUS298fjdNoZw_M_XQ-121" value="" style="endArrow=none;html=1;rounded=0;entryX=0.5;entryY=1;entryDx=0;entryDy=0;exitX=0.331;exitY=-0.092;exitDx=0;exitDy=0;exitPerimeter=0;" parent="1" source="D-AUS298fjdNoZw_M_XQ-74" target="D-AUS298fjdNoZw_M_XQ-117" edge="1">
          <mxGeometry width="50" height="50" relative="1" as="geometry">
            <mxPoint x="-360" y="520" as="sourcePoint" />
            <mxPoint x="-310" y="470" as="targetPoint" />
          </mxGeometry>
        </mxCell>
        <mxCell id="D-AUS298fjdNoZw_M_XQ-122" value="MAKES" style="shape=rhombus;perimeter=rhombusPerimeter;whiteSpace=wrap;html=1;align=center;fontSize=18;" parent="1" vertex="1">
          <mxGeometry x="-760" y="580" width="90" height="90" as="geometry" />
        </mxCell>
        <mxCell id="D-AUS298fjdNoZw_M_XQ-123" value="" style="endArrow=none;html=1;rounded=0;exitX=0.653;exitY=1.042;exitDx=0;exitDy=0;exitPerimeter=0;entryX=0;entryY=0.5;entryDx=0;entryDy=0;" parent="1" source="D-AUS298fjdNoZw_M_XQ-48" target="D-AUS298fjdNoZw_M_XQ-122" edge="1">
          <mxGeometry width="50" height="50" relative="1" as="geometry">
            <mxPoint x="-1050" y="580" as="sourcePoint" />
            <mxPoint x="-1000" y="530" as="targetPoint" />
          </mxGeometry>
        </mxCell>
        <mxCell id="D-AUS298fjdNoZw_M_XQ-124" value="" style="endArrow=none;html=1;rounded=0;entryX=0;entryY=0.5;entryDx=0;entryDy=0;exitX=1;exitY=0.5;exitDx=0;exitDy=0;" parent="1" source="D-AUS298fjdNoZw_M_XQ-122" target="D-AUS298fjdNoZw_M_XQ-74" edge="1">
          <mxGeometry width="50" height="50" relative="1" as="geometry">
            <mxPoint x="-590" y="660" as="sourcePoint" />
            <mxPoint x="-540" y="610" as="targetPoint" />
          </mxGeometry>
        </mxCell>
        <mxCell id="D-AUS298fjdNoZw_M_XQ-125" value="(0, N)" style="text;html=1;align=center;verticalAlign=middle;resizable=0;points=[];autosize=1;strokeColor=none;fillColor=none;fontSize=15;" parent="1" vertex="1">
          <mxGeometry x="-315" y="480" width="60" height="30" as="geometry" />
        </mxCell>
        <mxCell id="D-AUS298fjdNoZw_M_XQ-126" value="(1, N)" style="text;html=1;align=center;verticalAlign=middle;resizable=0;points=[];autosize=1;strokeColor=none;fillColor=none;fontSize=15;" parent="1" vertex="1">
          <mxGeometry x="-340" y="235" width="60" height="30" as="geometry" />
        </mxCell>
        <mxCell id="D-AUS298fjdNoZw_M_XQ-127" value="(1, N)" style="text;html=1;align=center;verticalAlign=middle;resizable=0;points=[];autosize=1;strokeColor=none;fillColor=none;fontSize=15;" parent="1" vertex="1">
          <mxGeometry x="-1015" y="540" width="60" height="30" as="geometry" />
        </mxCell>
        <mxCell id="D-AUS298fjdNoZw_M_XQ-128" value="(1, 1)" style="text;html=1;align=center;verticalAlign=middle;resizable=0;points=[];autosize=1;strokeColor=none;fillColor=none;fontSize=15;" parent="1" vertex="1">
          <mxGeometry x="-510" y="615" width="60" height="30" as="geometry" />
        </mxCell>
        <mxCell id="D-AUS298fjdNoZw_M_XQ-129" value="results" style="ellipse;whiteSpace=wrap;html=1;align=center;fontSize=20;" parent="1" vertex="1">
          <mxGeometry x="-140" y="335" width="100" height="40" as="geometry" />
        </mxCell>
        <mxCell id="D-AUS298fjdNoZw_M_XQ-130" value="" style="endArrow=none;html=1;rounded=0;entryX=1;entryY=0.5;entryDx=0;entryDy=0;exitX=0;exitY=0.5;exitDx=0;exitDy=0;" parent="1" source="D-AUS298fjdNoZw_M_XQ-129" target="D-AUS298fjdNoZw_M_XQ-117" edge="1">
          <mxGeometry width="50" height="50" relative="1" as="geometry">
            <mxPoint x="-340" y="690" as="sourcePoint" />
            <mxPoint x="-290" y="640" as="targetPoint" />
          </mxGeometry>
        </mxCell>
      </root>
    </mxGraphModel>
  </diagram>
</mxfile>
